PathFileType	4	(X/Y/Z)	C:\Users\Basilio\Documents\Thesis Gigler\squatting_fais\c3dfiles\054\SLS_front_pre5\markers_experimental.trc
DataRate	CameraRate	NumFrames	NumMarkers	Units	OrigDataRate	OrigDataStartFrame	OrigNumFrames
200.000000	200.000000	4	61	mm	200.000000	1236	1413
Frame#	Time	FHD			LBHD			RBHD			C7			T10			CLAV			LSHO			LUUPA			LMUPA			LDUPA			LLEP			LMEP			LRAD			LUL			LRFIN			RSHO			RUPA1			RMUPA			RDUPA			RLEP			RMEP			RRAD			RUL			RUFIN			LASI			RASI			USACR			LSACR			RSACR			LTHI1			LTHI2			LTHI3			LTHI4			LLFC			LMFC			LTIB1			LTIB2			LTIB3			LTIB4			LLMAL			LMMAL			LHEE			LMT1			LMT2			LMT5			RTHI			RTHI2			RTHI3			RTHI4			RLFC			RMFC			RTIB1			RTIB2			RTIB3			RTIB4			RLMAL			RMMAL			RHEE			RMT1			RMT2			RMT5			
		X1	Y1	Z1	X2	Y2	Z2	X3	Y3	Z3	X4	Y4	Z4	X5	Y5	Z5	X6	Y6	Z6	X7	Y7	Z7	X8	Y8	Z8	X9	Y9	Z9	X10	Y10	Z10	X11	Y11	Z11	X12	Y12	Z12	X13	Y13	Z13	X14	Y14	Z14	X15	Y15	Z15	X16	Y16	Z16	X17	Y17	Z17	X18	Y18	Z18	X19	Y19	Z19	X20	Y20	Z20	X21	Y21	Z21	X22	Y22	Z22	X23	Y23	Z23	X24	Y24	Z24	X25	Y25	Z25	X26	Y26	Z26	X27	Y27	Z27	X28	Y28	Z28	X29	Y29	Z29	X30	Y30	Z30	X31	Y31	Z31	X32	Y32	Z32	X33	Y33	Z33	X34	Y34	Z34	X35	Y35	Z35	X36	Y36	Z36	X37	Y37	Z37	X38	Y38	Z38	X39	Y39	Z39	X40	Y40	Z40	X41	Y41	Z41	X42	Y42	Z42	X43	Y43	Z43	X44	Y44	Z44	X45	Y45	Z45	X46	Y46	Z46	X47	Y47	Z47	X48	Y48	Z48	X49	Y49	Z49	X50	Y50	Z50	X51	Y51	Z51	X52	Y52	Z52	X53	Y53	Z53	X54	Y54	Z54	X55	Y55	Z55	X56	Y56	Z56	X57	Y57	Z57	X58	Y58	Z58	X59	Y59	Z59	X60	Y60	Z60	X61	Y61	Z61	

1237	6.18	-148.8186645507813	1781.294311523438	-840.442810058594	-315.1865539550782	1735.702270507813	-912.001647949219	-329.6861267089844	1734.153686523438	-772.3586425781252	-368.0876770019532	1565.361328125	-833.237487792969	-418.2846069335939	1240.225463867188	-844.2595214843752	-226.3840484619141	1502.839477539063	-840.447204589844	-297.1213378906251	1548.236694335938	-999.7794189453127	-262.9347534179688	1344.2919921875	-1135.359985351563	-215.5366821289063	1352.83544921875	-1140.542236328125	-219.8690948486329	1296.856079101563	-1160.3759765625	-170.5093994140625	1264.453979492188	-1174.457153320313	-190.8974609375	1213.982055664063	-1113.116577148438	80.65555572509767	1198.798095703125	-1101.298217773438	70.84297943115236	1141.326049804688	-1152.787353515625	168.3933563232422	1173.2685546875	-1124.712036132813	-284.1033020019532	1544.359985351563	-678.1514282226564	-213.6339721679688	1342.098510742188	-547.9635620117189	-165.9916076660157	1346.061279296875	-555.2169799804689	-170.0388488769532	1289.2314453125	-533.2028198242189	-137.8423461914063	1257.643188476563	-530.2230834960939	-163.5168151855469	1214.037353515625	-590.9667358398439	122.4076156616211	1213.736328125	-638.8016357421876	110.8811340332032	1168.66943359375	-574.1290893554689	201.7921905517579	1211.973754882813	-621.3692016601564	-241.6158142089844	1059.809936523438	-959.8590087890627	-247.1184082031251	1069.770141601563	-707.9575805664064	-428.1397705078126	1148.965698242188	-843.3935546875002	-433.515106201172	1117.053955078125	-871.4092407226565	-433.6092834472657	1117.012451171875	-814.3057250976565	-304.5410156250001	824.1833496093752	-1064.797485351563	-262.8302307128907	749.0872802734376	-1069.289184570313	-217.2269744873047	757.9417724609376	-1058.046997070313	-285.0874328613282	692.6145019531251	-1059.587280273438	-266.7913818359376	542.1286621093751	-1056.6357421875	-243.4638977050782	524.3441772460939	-920.1199951171877	-239.3615875244141	373.6293945312501	-1018.984008789063	-288.0531616210938	337.7094421386719	-1084.473266601563	-252.8253631591797	329.6257019042969	-1056.66943359375	-267.5809326171876	249.9094238281251	-1031.542846679688	-336.2737426757813	121.0871658325196	-1089.523315429688	-307.1857299804688	133.6030578613282	-995.8079223632815	-408.2158203125001	107.3278274536133	-1035.58154296875	-197.7651672363282	56.17422485351564	-1013.28759765625	-189.2089385986328	58.62749099731447	-1062.395874023438	-241.4053344726563	46.2754020690918	-1114.06591796875	-320.7198181152344	759.3610839843751	-633.3735961914064	-280.2250366210938	707.1035766601564	-629.7062377929689	-246.8880157470704	709.6759643554689	-631.6796264648439	-300.8508605957032	628.4042358398439	-648.4006958007814	-304.2864074707032	536.2544555664064	-650.4937744140626	-248.5337066650391	541.8458251953126	-776.8460693359377	-255.2934722900391	424.2303161621095	-656.7698364257814	-331.7979125976563	355.6170959472657	-626.5894775390626	-286.9436340332032	345.5764465332032	-635.4274291992189	-274.9879760742188	294.7757873535157	-660.6104736328126	-346.7111206054688	127.367790222168	-645.4489746093751	-306.3322448730469	137.2300567626953	-731.2781372070314	-408.7276611328126	104.4770736694336	-705.5667114257814	-190.7860565185547	52.93528747558595	-712.3201904296876	-190.8595428466797	53.08180999755861	-664.3707885742189	-241.7144470214844	41.51861190795899	-616.3878784179689	
1238	6.185	-148.1743774414063	1780.998779296875	-838.6250000000002	-314.0268554687501	1735.507446289063	-910.2429809570315	-329.1412658691407	1733.948974609375	-770.6914062500002	-367.6363525390626	1565.275146484375	-831.8618774414065	-418.0486450195314	1240.2900390625	-842.637878417969	-225.8265991210938	1502.609130859375	-838.8005981445315	-296.1516113281251	1547.96728515625	-998.5065917968752	-263.8901672363282	1343.136596679688	-1133.476806640625	-216.2490386962891	1350.780517578125	-1138.246337890625	-221.4717407226563	1294.745239257813	-1157.953735351563	-172.8046875	1261.501831054688	-1171.716674804688	-193.8089294433594	1211.650756835938	-1110.027709960938	76.84127044677736	1190.841430664063	-1098.526733398438	66.22705078125001	1133.373779296875	-1150.12744140625	164.3646087646485	1162.69384765625	-1121.713989257813	-283.8217773437501	1543.806640625	-676.3440551757814	-215.7120513916016	1340.082641601563	-546.7830810546876	-168.0498352050782	1343.576171875	-553.9499511718751	-173.1991729736328	1286.658325195313	-531.8958740234376	-141.5555877685547	1254.438842773438	-528.8192138671876	-168.0047149658203	1211.56103515625	-589.7526245117189	118.1975555419922	1205.058837890625	-636.4133911132814	105.6339950561524	1160.891967773438	-571.6137084960939	197.7201538085938	1202.067749023438	-618.5343627929689	-241.800033569336	1060.058349609375	-958.8023681640627	-246.8520050048829	1069.533935546875	-706.5528564453126	-427.7884521484376	1148.921142578125	-841.725280761719	-434.6401672363282	1117.324829101563	-869.6726684570315	-433.6379699707032	1116.909057617188	-812.5747680664065	-304.8771972656251	824.213806152344	-1063.833251953125	-263.3387145996094	749.1929321289064	-1068.350952148438	-217.6640625000001	757.9398193359376	-1057.244506835938	-285.8510742187501	692.7346801757814	-1058.642578125	-267.6615600585938	542.1605224609376	-1056.137329101563	-244.3425903320313	524.1649169921876	-919.599548339844	-239.8556518554688	373.5966186523438	-1018.700073242188	-288.6986083984376	337.8280334472657	-1084.24462890625	-253.6109924316407	329.8237304687501	-1056.418579101563	-267.8572082519532	250.0781402587891	-1031.385986328125	-336.2930297851563	121.1370391845703	-1089.535766601563	-307.3175354003907	133.5287170410157	-995.7998657226565	-408.2136230468751	107.2503433227539	-1035.62353515625	-197.7946929931641	56.12405014038087	-1013.34375	-188.5698852539063	58.92889785766603	-1062.047607421875	-241.4700012207032	46.23983001708985	-1114.1025390625	-320.5707702636719	759.0829467773439	-632.6503906250001	-280.1397705078126	706.6922607421876	-628.8331909179689	-246.6377410888672	709.3864746093751	-630.6336059570314	-300.5133056640626	627.8718261718751	-647.6759643554689	-304.1736755371094	535.9713745117189	-649.9678955078126	-248.0693359375001	541.5809326171876	-776.1831054687502	-255.1802825927735	423.8615112304689	-656.3412475585939	-331.8826599121094	355.3443908691407	-626.3947143554689	-287.0858459472657	345.2891235351563	-635.1211547851564	-275.2181396484376	294.3945312500001	-660.2813110351564	-346.7206726074219	127.1632461547852	-645.5164794921876	-306.4777221679688	137.0066528320313	-731.3811035156251	-408.790985107422	104.3598709106446	-705.6586914062501	-190.8023071289063	52.9406089782715	-712.3467407226564	-190.9036407470703	53.07406997680665	-664.4407958984376	-241.7886657714844	41.51086425781251	-616.4154052734376	
1239	6.19	-147.5594177246094	1780.78857421875	-836.803161621094	-313.6380310058594	1735.543579101563	-908.6301269531252	-328.5137023925782	1733.64599609375	-769.1340332031252	-366.9952087402344	1565.18701171875	-830.540466308594	-417.4605712890626	1240.097534179688	-841.2785644531252	-225.2360229492188	1502.42626953125	-837.2399902343752	-295.1530151367188	1547.434204101563	-997.0778808593752	-264.3100585937501	1341.772705078125	-1131.208129882813	-216.4905548095704	1348.722290039063	-1135.925415039063	-222.2461853027344	1292.943359375	-1155.830444335938	-174.821273803711	1258.594116210938	-1169.18212890625	-196.9097137451172	1209.2802734375	-1107.422119140625	73.51259613037111	1182.701049804688	-1095.847900390625	61.76822662353517	1125.174438476563	-1147.391967773438	159.8396148681641	1151.9521484375	-1118.689331054688	-283.6056518554688	1543.433715820313	-674.4127807617189	-217.8075256347657	1338.333251953125	-545.6402587890626	-170.3055267333985	1341.043701171875	-552.4759521484376	-176.2734069824219	1284.125122070313	-530.6177978515626	-145.2459564208985	1251.516357421875	-527.7229003906251	-172.2940979003907	1209.085205078125	-588.6293334960939	114.0642166137696	1196.781616210938	-633.8317871093751	100.4853744506836	1153.070678710938	-569.1422729492189	193.6195983886719	1191.8515625	-615.8755493164064	-241.4598083496094	1060.342163085938	-958.1426391601565	-246.5999908447266	1069.214599609375	-705.2808227539064	-427.7445373535157	1148.849243164063	-840.1020507812502	-432.915496826172	1116.887329101563	-868.3094482421877	-433.2747192382814	1116.812255859375	-810.9297485351565	-305.3106079101563	824.4550781250002	-1062.8134765625	-264.0971069335938	749.3553466796876	-1067.360107421875	-218.2801666259766	757.8604736328126	-1056.287109375	-286.6526794433594	692.8560180664064	-1057.718872070313	-268.7869262695313	542.0927124023439	-1055.448852539063	-245.618148803711	523.9680786132814	-919.1337890625002	-240.6138916015626	373.5074768066407	-1018.462646484375	-289.3315734863282	337.8880615234376	-1083.942626953125	-254.6501617431641	329.9474182128907	-1056.150024414063	-268.1646728515626	250.0351257324219	-1031.34619140625	-336.3156433105469	121.2056961059571	-1089.602172851563	-307.4418334960938	133.467529296875	-995.7654418945315	-408.253631591797	107.2164916992188	-1035.6279296875	-197.8194732666016	56.17859649658205	-1013.429748535156	-188.8521728515625	58.59817123413087	-1062.332397460938	-241.5035247802735	46.19113159179688	-1114.175415039063	-320.3688354492188	758.8646240234376	-631.8752441406251	-280.0589599609376	706.3082885742189	-627.9676513671876	-246.3182067871094	709.0546264648439	-629.9542236328126	-300.2563171386719	627.5981445312501	-646.9717407226564	-304.1818847656251	535.6977539062501	-649.5489501953126	-247.7358093261719	541.3063354492189	-775.5330810546877	-255.3432159423829	423.5993957519532	-655.9343261718751	-332.0317077636719	355.0070495605469	-626.2144165039064	-287.2426147460938	344.8874511718751	-634.9157714843751	-275.2962341308594	294.1282958984376	-660.0246582031251	-346.8127441406251	126.9762954711914	-645.6239624023439	-306.6601562500001	136.9069519042969	-731.5358276367189	-408.8041992187501	104.1947326660157	-705.7440795898439	-190.7986297607422	52.93761062622072	-712.3439331054689	-190.9202880859375	53.1120948791504	-664.4465942382814	-241.7718353271485	41.54251098632813	-616.4608154296876	
1240	6.195	-146.6381072998047	1780.366821289063	-835.1007080078127	-312.5165100097657	1735.473999023438	-907.0032348632815	-327.7641601562501	1733.426635742188	-767.4514160156251	-366.4537658691407	1565.121337890625	-829.1233520507815	-417.6368713378907	1240.233032226563	-839.801940917969	-225.0519104003907	1502.103759765625	-835.6214599609377	-294.0487976074219	1546.9697265625	-995.866394042969	-265.2517089843751	1340.412963867188	-1129.34765625	-217.3940734863282	1346.702026367188	-1133.626708984375	-224.3186035156251	1290.699951171875	-1153.386474609375	-176.9182891845703	1255.804809570313	-1166.552001953125	-200.2466430664063	1207.117553710938	-1104.846069335938	69.76358032226564	1174.408935546875	-1093.171875	56.84308242797853	1117.4775390625	-1144.8115234375	155.68896484375	1141.515625	-1115.787475585938	-283.4947814941407	1542.983276367188	-672.5980224609376	-219.9903259277344	1336.6376953125	-544.3773803710939	-172.1033020019532	1338.530029296875	-551.4863281250001	-179.2084045410157	1281.662475585938	-529.6663818359376	-148.7106323242188	1248.660278320313	-526.6638793945314	-176.1164093017578	1206.766845703125	-587.7604370117189	109.9385375976563	1188.260620117188	-631.5206909179689	95.13265228271486	1145.258056640625	-566.4758300781251	189.214340209961	1181.755493164063	-613.1524658203126	-241.2066955566407	1059.890869140625	-956.8770751953127	-246.1387329101563	1069.029663085938	-704.0191040039064	-427.4554138183595	1148.897827148438	-838.5962524414065	-432.3471069335939	1116.783325195313	-866.728210449219	-433.0130004882814	1116.651489257813	-809.4741210937502	-305.7558593750001	824.5225830078127	-1061.775756835938	-264.7654724121094	749.4483642578126	-1066.628051757813	-219.0154266357422	757.8555297851564	-1055.557495117188	-287.4244689941407	692.9940185546876	-1057.105834960938	-269.9033813476563	542.1367797851564	-1054.918579101563	-246.2713775634766	523.7232666015626	-918.7143554687502	-240.9735412597657	373.6213684082032	-1018.406433105469	-290.0612182617188	338.0552978515626	-1083.70947265625	-255.0528869628907	329.9605407714844	-1056.119995117188	-268.5927734375001	250.0095214843751	-1031.389038085938	-336.4257812500001	121.284538269043	-1089.668823242188	-307.4203491210938	133.3835754394532	-995.857849121094	-408.3152465820314	107.1105117797852	-1035.698120117188	-197.8306427001954	56.13278198242189	-1013.5615234375	-188.6298828125	58.86744689941408	-1062.201293945313	-241.5371398925782	46.06844329833985	-1114.271240234375	-319.9920654296876	758.4367675781251	-631.1073608398439	-279.7588806152344	706.0144653320314	-627.3212280273439	-246.0742187500001	708.6914672851564	-629.1715698242189	-299.9825744628907	627.4518432617189	-646.3199462890626	-304.0415039062501	535.4509887695314	-649.0076904296876	-247.4206542968751	541.1408691406251	-774.9945068359377	-255.0230407714844	423.156463623047	-655.6001586914064	-332.2157287597657	354.7712707519532	-625.9965820312501	-287.2824401855469	344.5962829589844	-634.7216186523439	-275.4465637207032	293.9076843261719	-659.7622680664064	-346.9188537597657	126.8527069091797	-645.6906127929689	-306.7567749023438	136.6924438476563	-731.5428466796876	-408.7416381835939	103.8900527954102	-705.8076782226564	-190.8333587646485	52.98581314086915	-712.3984375000001	-190.9308166503907	53.11281967163087	-664.4965209960939	-241.7808532714844	41.51664733886719	-616.4560546875001	
